<!--
  Anthropic vs. OpenAI brand differentiation
  Book: Branding and AI
  Chapter: 01-the-creative-engineer
  Figure: 06
  Type: comparison panels
  Generated: 2026-06-18
  Source: pantry/01-the-creative-engineer-cajal.md
-->
<svg viewBox="0 0 720 400" xmlns="http://www.w3.org/2000/svg" role="img" aria-labelledby="fig-title-01-06">
  <title id="fig-title-01-06">Anthropic vs. OpenAI brand differentiation</title>
  <desc>Two competitors with similar technical work and opposite brand positions, compared on audience, positioning, flagship signal, and market captured.</desc>
  <rect x="0" y="0" width="720" height="400" fill="#FFFFFF"/>
  <text x="32" y="38" font-family="'EB Garamond','Garamond',Georgia,serif" font-size="14" fill="#121212">Similar technical work, opposite brand positions</text>

  <!-- row label column -->
  <g font-family="'Inter',-apple-system,'Helvetica Neue',sans-serif" font-size="11" fill="#545454">
    <text x="32" y="138">Primary audience</text>
    <text x="32" y="206">Brand positioning</text>
    <text x="32" y="274">Flagship signal</text>
    <text x="32" y="342">Market captured</text>
  </g>

  <!-- column headers -->
  <text x="320" y="78" font-family="'Inter',-apple-system,'Helvetica Neue',sans-serif" font-size="13" font-weight="700" fill="#121212" text-anchor="middle">Anthropic</text>
  <text x="540" y="78" font-family="'Inter',-apple-system,'Helvetica Neue',sans-serif" font-size="13" font-weight="700" fill="#121212" text-anchor="middle">OpenAI</text>

  <!-- divider -->
  <line x1="430" y1="92" x2="430" y2="368" stroke="#D4D4D4" stroke-width="1"/>
  <!-- panel frames -->
  <rect x="210" y="92" width="220" height="276" fill="#F5F5F5" stroke="#D4D4D4" stroke-width="1"/>
  <rect x="430" y="92" width="220" height="276" fill="#F5F5F5" stroke="#D4D4D4" stroke-width="1"/>
  <!-- row dividers -->
  <line x1="210" y1="160" x2="650" y2="160" stroke="#D4D4D4" stroke-width="0.75"/>
  <line x1="210" y1="228" x2="650" y2="228" stroke="#D4D4D4" stroke-width="0.75"/>
  <line x1="210" y1="296" x2="650" y2="296" stroke="#D4D4D4" stroke-width="0.75"/>

  <g font-family="'Inter',-apple-system,'Helvetica Neue',sans-serif" font-size="11" fill="#121212">
    <!-- Anthropic -->
    <text x="222" y="120">Enterprise, regulated</text><text x="222" y="136">industries, safety-</text><text x="222" y="152">conscious deployers</text>
    <text x="222" y="188">"Honest, harmless,</text><text x="222" y="204">helpful" — safety as a</text><text x="222" y="220">first-order commitment</text>
    <text x="222" y="256">Constitutional AI</text><text x="222" y="272">(Bai et al., 2022) — a</text><text x="222" y="288">named alignment method</text>
    <text x="222" y="324">Enterprise + API where</text><text x="222" y="340">compliance and brand</text><text x="222" y="356">safety matter</text>

    <!-- OpenAI -->
    <text x="442" y="120">Consumer market,</text><text x="442" y="136">developer ecosystem,</text><text x="442" y="152">frontier accounts</text>
    <text x="442" y="188">"Ensure AGI benefits</text><text x="442" y="204">all of humanity" —</text><text x="442" y="220">frontier capability first</text>
    <text x="442" y="256">GPT capability</text><text x="442" y="272">announcements —</text><text x="442" y="288">benchmarks, adoption</text>
    <text x="442" y="324">Consumer mindshare;</text><text x="442" y="340">developer-first; raw-</text><text x="442" y="356">capability accounts</text>
  </g>
</svg>
